# xmcd
#
# Track frame offsets:
#	150
#	11157
#	26750
#	38887
#	52620
#	62770
#	75462
#	88130
#	100179
#	112927
#	124522
#	138782
#	150017
#	161770
#	173705
#	185462
#
# Disc length: 2626 seconds
#
# Revision: 1
# Processed by: cddbd v1.4PL0 Copyright (c) Steve Scherf et al.
# Submitted via: audiograbber 1.81.03
#
DISCID=b60a4010
DTITLE=Barry White - Boss Soul: The Genius of Barry White
DYEAR=1900
DGENRE=
TTITLE0=I Don't Need It
TTITLE1=A Man Ain't Nothin'
TTITLE2=I Got Love
TTITLE3=Lost Without the Love of My Guy
TTITLE4=This Thing Called Love
TTITLE5=To Whom It May Concern
TTITLE6=Together Forever
TTITLE7=Don't Kiss Me Hello
TTITLE8=It May Be Winter Outside (But in My Heart It's Spring)
TTITLE9=Everybody's Going Mod
TTITLE10=I Feel Love Coming On
TTITLE11=You're Out of My Mind
TTITLE12=Under the Influence of Love
TTITLE13=Don't Take Your Love from Me
TTITLE14=All in the Run of a Day
TTITLE15=Love Theme [Instrumental]
EXTD=
EXTT0=
EXTT1=
EXTT2=
EXTT3=
EXTT4=
EXTT5=
EXTT6=
EXTT7=
EXTT8=
EXTT9=
EXTT10=
EXTT11=
EXTT12=
EXTT13=
EXTT14=
EXTT15=
PLAYORDER=
